HIERARCHY
ROOT root
{
	OFFSET	0	13.1	24.9
	CHANNELS 6  Xposition Yposition Zposition Xrotation Yrotation Zrotation
	JOINT spine_1
	{
		OFFSET	0	9.99999	0
		CHANNELS 3  Xrotation Yrotation Zrotation
		JOINT spine_2
		{
			OFFSET	0	112	-10
			CHANNELS 3  Xrotation Yrotation Zrotation
			JOINT spine_3
			{
				OFFSET	0	206.5	19.3
				CHANNELS 3  Xrotation Yrotation Zrotation
				JOINT spine_4
				{
					OFFSET	0	110.4	14.6
					CHANNELS 3  Xrotation Yrotation Zrotation
					JOINT neck_1
					{
						OFFSET	0	71.8	-50.3
						CHANNELS 3  Xrotation Yrotation Zrotation
						JOINT neck_2
						{
							OFFSET	0	86.2	-25.8
							CHANNELS 3  Xrotation Yrotation Zrotation
							JOINT head_ee
							{
								OFFSET	0	179.8	-8.7
								CHANNELS 3  Xrotation Yrotation Zrotation
								End Site
								{
									OFFSET	1	0	0
								}
							}
						}
					}
					JOINT left_clavicle
					{
						OFFSET	-43.2	22.4	-70.8
						CHANNELS 3  Xrotation Yrotation Zrotation
						JOINT left_shoulder
						{
							OFFSET	-93.9	-5.79999	48.7
							CHANNELS 3  Xrotation Yrotation Zrotation
							JOINT left_elbow
							{
								OFFSET	-291.4	-30.8	15.2
								CHANNELS 3  Xrotation Yrotation Zrotation
								JOINT left_lowarm_twist
								{
									OFFSET	-110.7	-3.89999	13.6
									CHANNELS 3  Xrotation Yrotation Zrotation
									JOINT left_hand
									{
										OFFSET	-110.7	-3.89999	13.6
										CHANNELS 3  Xrotation Yrotation Zrotation
										JOINT left_ee
										{
											OFFSET	-80.8	-5.10001	12.1
											CHANNELS 3  Xrotation Yrotation Zrotation
											End Site
											{
												OFFSET	1	0	0
											}
										}
									}
								}
							}
						}
					}
					JOINT right_clavicle
					{
						OFFSET	43.2	22.4	-70.8
						CHANNELS 3  Xrotation Yrotation Zrotation
						JOINT right_shoulder
						{
							OFFSET	93.9	-5.79999	48.7
							CHANNELS 3  Xrotation Yrotation Zrotation
							JOINT right_elbow
							{
								OFFSET	291.4	-30.8	15.2
								CHANNELS 3  Xrotation Yrotation Zrotation
								JOINT right_lowarm_twist
								{
									OFFSET	110.7	-3.89999	13.6
									CHANNELS 3  Xrotation Yrotation Zrotation
									JOINT right_hand
									{
										OFFSET	110.7	-3.89999	13.6
										CHANNELS 3  Xrotation Yrotation Zrotation
										JOINT right_ee
										{
											OFFSET	80.8	-5.10001	12.1
											CHANNELS 3  Xrotation Yrotation Zrotation
											End Site
											{
												OFFSET	1	0	0
											}
										}
									}
								}
							}
						}
					}
				}
			}
		}
	}
	JOINT left_hip
	{
		OFFSET	-82.8	-127.5	0.300001
		CHANNELS 3  Xrotation Yrotation Zrotation
		JOINT left_knee
		{
			OFFSET	-28.2	-396.7	2.2
			CHANNELS 3  Xrotation Yrotation Zrotation
			JOINT left_ankle
			{
				OFFSET	-11.7	-411.3	35.4
				CHANNELS 3  Xrotation Yrotation Zrotation
				JOINT left_toes
				{
					OFFSET	0	-60	-88.6
					CHANNELS 3  Xrotation Yrotation Zrotation
					JOINT left_foot_ee
					{
						OFFSET	-22.5	-16.5	-42.2
						CHANNELS 3  Xrotation Yrotation Zrotation
						End Site
						{
							OFFSET	1	0	0
						}
					}
				}
			}
		}
	}
	JOINT right_hip
	{
		OFFSET	82.8	-127.5	0.300001
		CHANNELS 3  Xrotation Yrotation Zrotation
		JOINT right_knee
		{
			OFFSET	28.2	-396.7	2.2
			CHANNELS 3  Xrotation Yrotation Zrotation
			JOINT right_ankle
			{
				OFFSET	11.7	-411.3	35.4
				CHANNELS 3  Xrotation Yrotation Zrotation
				JOINT right_toes
				{
					OFFSET	0	-60	-88.6
					CHANNELS 3  Xrotation Yrotation Zrotation
					JOINT right_foot_ee
					{
						OFFSET	22.5	-16.5	-42.2
						CHANNELS 3  Xrotation Yrotation Zrotation
						End Site
						{
							OFFSET	1	0	0
						}
					}
				}
			}
		}
	}
}
MOTION
Frames: 9
Frame Time: 0.02
2800.94 716.97 -1473.77 -24.3133199719 83.5675136519 27.1663951507 2.32743 -0.317498 -1.48174 2.32862 -0.222579 -1.49894 2.33434 0.0357408 -1.51495 2.3312 -0.203938 -1.50159 -17.9501 8.06097 1.88879 -18.1933 14.4805 4.87935 -0.0 0.0 -0.0 7.82545 4.54945 15.1256 -6.66093 -37.3649 61.1757 1.39346 -34.6146 0.43423 -6.10072 -0.254481 0.736821 2.747 8.27592 21.78 -0.0 0.0 -0.0 10.7952 -27.3877 -17.162 -5.32109 -27.8952 -47.0589 0.447622 12.5026 -0.0490331 -44.659 3.45971 -4.37483 8.28024 4.32948 -70.0682 0.0 0.0 0.0 -12.7203 -14.801 -6.84068 -4.95881 0.172172 0.741318 39.5982 -8.66704 -4.96251 -31.1857 0.0 0.0 -0.0 0.0 -0.0 27.0023 -1.15903 -2.38189 1.92876 0.0842169 0.283969 -7.20909 2.86441 -1.09227 -16.0713 0.0 0.0 0.0 0.0 0.0 
2800.94 716.97 -1473.77 -21.6079967687 82.8043655687 24.441894369 2.32743 -0.317498 -1.48174 2.32862 -0.222579 -1.49894 2.33434 0.0357408 -1.51495 2.3312 -0.203938 -1.50159 -17.9501 8.06097 1.88879 -18.1933 14.4805 4.87935 -0.0 0.0 -0.0 7.82545 4.54945 15.1256 -6.66093 -37.3649 61.1757 1.39346 -34.6146 0.43423 -6.10072 -0.254481 0.736821 2.747 8.27592 21.78 -0.0 0.0 -0.0 10.7952 -27.3877 -17.162 -5.32109 -27.8952 -47.0589 0.447622 12.5026 -0.0490331 -44.659 3.45971 -4.37483 8.28024 4.32948 -70.0682 0.0 0.0 0.0 -12.7203 -14.801 -6.84068 -4.95881 0.172172 0.741318 39.5982 -8.66704 -4.96251 -31.1857 0.0 0.0 -0.0 0.0 -0.0 27.0023 -1.15903 -2.38189 1.92876 0.0842169 0.283969 -7.20909 2.86441 -1.09227 -16.0713 0.0 0.0 0.0 0.0 0.0 
2786.22985873 715.687 -1480.95375945 -22.1365384039 82.3027391059 24.5531769356 2.35736 -0.270932 -1.28823 2.35826 -0.188417 -1.30286 2.36246 0.0353968 -1.31593 2.36009 -0.172856 -1.30501 -19.0723 8.8012 1.50345 -19.4193 16.1652 4.99437 -0.0 0.0 -0.0 7.80576 6.70976 15.0017 -8.55987 -36.8518 60.5808 1.33061 -33.389 0.399079 -7.6822 -0.333158 0.923127 2.60726 9.02287 21.0605 -0.0 0.0 -0.0 11.0775 -27.0504 -17.6398 -4.90557 -27.546 -47.8543 0.454622 12.6918 -0.0505599 -44.2375 3.41268 -4.34812 8.37213 3.92376 -72.521 0.0 0.0 0.0 -14.6323 -14.3578 -6.56618 -2.04095 0.0786378 0.303328 39.4281 -8.07004 -4.93545 -30.2581 0.0 0.0 -0.0 0.0 -0.0 26.4389 -1.24144 -2.56924 1.25585 0.053748 0.185214 -6.63397 3.25764 -1.00555 -13.9043 0.0 0.0 0.0 0.0 0.0 
2767.77932423 714.187 -1490.91576657 -25.4439833192 83.3361461406 27.6955504934 2.36404 -0.435077 -1.18322 2.36475 -0.35891 -1.2085 2.3723 -0.148892 -1.25184 2.37028 -0.344714 -1.21263 -17.6071 8.71227 0.36506 -17.9324 16.5469 3.67841 -0.0 0.0 -0.0 7.72969 7.90568 14.8038 -10.7988 -36.6445 60.4683 1.22759 -31.303 0.343951 -9.92559 -0.453541 1.18358 2.92623 7.35339 22.7246 -0.0 0.0 -0.0 11.2237 -27.2616 -17.7945 -5.0543 -27.5687 -48.5954 0.461133 12.8676 -0.0520002 -41.6046 3.12341 -4.17351 8.09352 4.2837 -66.7599 0.0 0.0 0.0 -13.9191 -14.1043 -6.58827 -6.04446 0.201257 0.905386 39.3414 -7.73451 -4.92128 -27.6371 0.0 0.0 -0.0 0.0 -0.0 25.7133 -1.22205 -2.32361 -0.382724 -0.0155701 -0.0566692 -7.40296 2.31733 -1.11988 -11.0008 0.0 0.0 0.0 0.0 0.0 
2754.43601471 713.389 -1493.10655224 -30.1195204178 83.8806925057 32.1876635618 2.43593 -0.516169 -1.08457 2.43647 -0.446113 -1.11521 2.44516 -0.252157 -1.17435 2.4435 -0.434449 -1.1198 -17.8666 8.69737 1.35736 -18.1709 15.9883 4.63106 -0.0 0.0 -0.0 7.54022 9.47812 14.3775 -12.185 -36.9116 60.8984 1.12042 -29.0305 0.290088 -12.4568 -0.601527 1.47161 3.11126 6.70471 23.8184 -0.0 0.0 -0.0 11.215 -26.5256 -17.9642 -4.17493 -27.5785 -49.016 0.467357 13.0354 -0.0533949 -42.8044 3.25423 -4.25472 8.09683 4.4706 -66.6081 0.0 0.0 0.0 -13.1352 -12.5736 -5.67096 -5.81943 0.195484 0.871335 39.9516 -6.26531 -4.94765 -29.5035 0.0 0.0 -0.0 0.0 -0.0 24.3362 -1.19973 -2.29587 1.43592 0.061788 0.211676 -7.02913 3.87959 -1.0687 -12.9312 0.0 0.0 0.0 0.0 0.0 
2754.82899468 713.389 -1494.02581617 -25.544564321 82.8740945306 27.5821857434 2.43593 -0.516169 -1.08457 2.43647 -0.446113 -1.11521 2.44516 -0.252157 -1.17435 2.4435 -0.434449 -1.1198 -17.8666 8.69737 1.35736 -18.1709 15.9883 4.63106 -0.0 0.0 -0.0 7.54022 9.47812 14.3775 -12.185 -36.9116 60.8984 1.12042 -29.0305 0.290088 -12.4568 -0.601527 1.47161 3.11126 6.70471 23.8184 -0.0 0.0 -0.0 11.215 -26.5256 -17.9642 -4.17493 -27.5785 -49.016 0.467357 13.0354 -0.0533949 -42.8044 3.25423 -4.25472 8.09683 4.4706 -66.6081 0.0 0.0 0.0 -13.1352 -12.5736 -5.67096 -5.81943 0.195484 0.871335 39.9516 -6.26531 -4.94765 -29.5035 0.0 0.0 -0.0 0.0 -0.0 24.3362 -1.19973 -2.29587 1.43592 0.061788 0.211676 -7.02913 3.87959 -1.0687 -12.9312 0.0 0.0 0.0 0.0 0.0 
2754.83168281 713.389 -1494.0319344 -25.5183665392 82.8672344244 27.5557838359 2.43593 -0.516169 -1.08457 2.43647 -0.446113 -1.11521 2.44516 -0.252157 -1.17435 2.4435 -0.434449 -1.1198 -17.8666 8.69737 1.35736 -18.1709 15.9883 4.63106 -0.0 0.0 -0.0 7.54022 9.47812 14.3775 -12.185 -36.9116 60.8984 1.12042 -29.0305 0.290088 -12.4568 -0.601527 1.47161 3.11126 6.70471 23.8184 -0.0 0.0 -0.0 11.215 -26.5256 -17.9642 -4.17493 -27.5785 -49.016 0.467357 13.0354 -0.0533949 -42.8044 3.25423 -4.25472 8.09683 4.4706 -66.6081 0.0 0.0 0.0 -13.1352 -12.5736 -5.67096 -5.81943 0.195484 0.871335 39.9516 -6.26531 -4.94765 -29.5035 0.0 0.0 -0.0 0.0 -0.0 24.3362 -1.19973 -2.29587 1.43592 0.061788 0.211676 -7.02913 3.87959 -1.0687 -12.9312 0.0 0.0 0.0 0.0 0.0 
2734.39420953 712.936 -1498.27190997 -25.9252721184 84.6262937254 27.7337643575 2.49929 -0.54247 -0.925657 2.49964 -0.482471 -0.958297 2.50773 -0.315514 -1.02545 2.50658 -0.473498 -0.962762 -15.8561 8.88109 1.1453 -16.1149 16.3575 4.19864 -0.0 0.0 -0.0 7.43379 12.5492 14.0121 -13.8609 -36.4497 60.754 1.01313 -26.6503 0.239968 -14.5007 -0.730243 1.6993 3.19585 6.77419 24.4525 -0.0 0.0 -0.0 11.2771 -26.2945 -18.1104 -3.55946 -27.7847 -49.4209 0.478085 13.324 -0.0558412 -40.6276 3.01815 -4.10537 8.02425 4.69969 -65.1813 0.0 0.0 0.0 -14.9551 -11.3035 -5.61488 -5.53833 0.188085 0.828831 39.7504 -5.67485 -4.92052 -28.8846 0.0 0.0 -0.0 0.0 -0.0 22.5748 -1.11417 -2.38208 1.84909 0.0805493 0.272296 -6.02978 2.81511 -0.911522 -11.7734 0.0 0.0 0.0 0.0 0.0 
2734.54462395 712.936 -1498.67662283 -24.3938139687 84.3105115692 26.1951478327 2.49929 -0.54247 -0.925657 2.49964 -0.482471 -0.958297 2.50773 -0.315514 -1.02545 2.50658 -0.473498 -0.962762 -15.8561 8.88109 1.1453 -16.1149 16.3575 4.19864 -0.0 0.0 -0.0 7.43379 12.5492 14.0121 -13.8609 -36.4497 60.754 1.01313 -26.6503 0.239968 -14.5007 -0.730243 1.6993 3.19585 6.77419 24.4525 -0.0 0.0 -0.0 11.2771 -26.2945 -18.1104 -3.55946 -27.7847 -49.4209 0.478085 13.324 -0.0558412 -40.6276 3.01815 -4.10537 8.02425 4.69969 -65.1813 0.0 0.0 0.0 -14.9551 -11.3035 -5.61488 -5.53833 0.188085 0.828831 39.7504 -5.67485 -4.92052 -28.8846 0.0 0.0 -0.0 0.0 -0.0 22.5748 -1.11417 -2.38208 1.84909 0.0805493 0.272296 -6.02978 2.81511 -0.911522 -11.7734 0.0 0.0 0.0 0.0 0.0 
